<svg width="157" height="46" viewBox="0 0 157 46" fill="none" xmlns="http://www.w3.org/2000/svg">
<path d="M156.128 40.695C156.128 43.1464 154.129 45.1321 151.657 45.1321H5.34884C2.8779 45.1321 0.872223 43.1464 0.872223 40.695V5.31079C0.872223 2.86055 2.8779 0.86792 5.34884 0.86792H151.656C154.129 0.86792 156.127 2.86055 156.127 5.31079L156.128 40.695Z" fill="white"/>
<path d="M151.185 0.92144C153.877 0.92144 156.068 3.08775 156.068 5.75V40.25C156.068 42.9123 153.877 45.0786 151.185 45.0786H5.81482C3.12256 45.0786 0.931824 42.9123 0.931824 40.25V5.75C0.931824 3.08775 3.12256 0.92144 5.81482 0.92144H151.185ZM151.185 3.8147e-06H5.81482C2.61812 3.8147e-06 0 2.58894 0 5.75V40.25C0 43.4111 2.61812 46 5.81482 46H151.185C154.382 46 157 43.4111 157 40.25V5.75C157 2.58894 154.382 3.8147e-06 151.185 3.8147e-06Z" fill="#A6A6A6"/>
<path d="M35.0378 22.7516C35.004 19.0451 38.1068 17.2419 38.2487 17.158C36.4915 14.6245 33.7678 14.2784 32.8107 14.2508C30.5231 14.0127 28.3042 15.6043 27.1389 15.6043C25.9504 15.6043 24.1559 14.2738 22.2219 14.3129C19.7332 14.3508 17.4049 15.7757 16.128 17.9883C13.4927 22.4997 15.4581 29.1295 17.9829 32.7761C19.2459 34.5621 20.7217 36.5562 22.6534 36.486C24.5432 36.409 25.2491 35.2946 27.5297 35.2946C29.7893 35.2946 30.4522 36.486 32.4222 36.4412C34.4505 36.409 35.7274 34.6472 36.9462 32.8451C38.4057 30.7981 38.9918 28.7822 39.0151 28.6787C38.9674 28.6626 35.0761 27.194 35.0378 22.7516Z" fill="black"/>
<path d="M31.3163 11.8519C32.3327 10.5949 33.0282 8.88489 32.8351 7.14954C31.364 7.21394 29.5241 8.15579 28.4647 9.38514C27.5273 10.4684 26.69 12.244 26.9063 13.9138C28.5589 14.0357 30.2556 13.0893 31.3163 11.8519Z" fill="black"/>
<path d="M57.0434 11.5103C57.0434 12.8639 56.6328 13.8828 55.8129 14.567C55.0535 15.1984 53.9743 15.5146 52.5764 15.5146C51.8833 15.5146 51.2902 15.4847 50.7936 15.4249V8.02926C51.4414 7.92576 52.1391 7.87286 52.8927 7.87286C54.2243 7.87286 55.228 8.15921 55.9048 8.73191C56.6631 9.37936 57.0434 10.3051 57.0434 11.5103ZM55.7583 11.5437C55.7583 10.6662 55.5234 9.99346 55.0535 9.52426C54.5837 9.05621 53.8975 8.82161 52.9939 8.82161C52.6101 8.82161 52.2833 8.84691 52.0124 8.89981V14.5222C52.1624 14.5452 52.4369 14.5555 52.8357 14.5555C53.7684 14.5555 54.4883 14.2991 54.9954 13.7862C55.5024 13.2733 55.7583 12.5258 55.7583 11.5437Z" fill="black"/>
<path d="M63.8572 12.6925C63.8572 13.5263 63.6164 14.2094 63.1349 14.7453C62.6302 15.2961 61.9615 15.571 61.1265 15.571C60.3217 15.571 59.6809 15.3076 59.203 14.7786C58.7262 14.2508 58.4877 13.5849 58.4877 12.7822C58.4877 11.9427 58.7331 11.2539 59.2262 10.7191C59.7193 10.1844 60.3822 9.91644 61.2172 9.91644C62.022 9.91644 62.6686 10.1798 63.1582 10.7076C63.6234 11.2205 63.8572 11.8829 63.8572 12.6925ZM62.593 12.7316C62.593 12.2314 62.4837 11.8024 62.2662 11.4448C62.0104 11.0124 61.6464 10.7962 61.173 10.7962C60.6834 10.7962 60.3113 11.0124 60.0554 11.4448C59.8368 11.8024 59.7286 12.2383 59.7286 12.7535C59.7286 13.2537 59.8379 13.6827 60.0554 14.0403C60.3194 14.4727 60.6869 14.6889 61.1614 14.6889C61.6266 14.6889 61.9918 14.4693 62.2546 14.0288C62.4802 13.6643 62.593 13.2319 62.593 12.7316Z" fill="black"/>
<path d="M72.9934 10.0268L71.278 15.4479H70.1616L69.451 13.0938C69.2707 12.5062 69.1242 11.922 69.0102 11.3424H68.9881C68.8823 11.9381 68.7358 12.5211 68.5474 13.0938L67.7926 15.4479H66.6634L65.0503 10.0268H66.3029L66.9227 12.6039C67.0727 13.2134 67.196 13.7942 67.2949 14.3439H67.317C67.4077 13.8908 67.5577 13.3135 67.7693 12.6154L68.5474 10.0279H69.5405L70.286 12.5602C70.4663 13.1778 70.6128 13.7723 70.7256 14.345H70.7593C70.8419 13.7873 70.9663 13.1927 71.1315 12.5602L71.7967 10.0279H72.9934V10.0268Z" fill="black"/>
<path d="M79.3118 15.4479H78.093V12.3429C78.093 11.3861 77.7255 10.9077 76.9882 10.9077C76.6265 10.9077 76.3346 11.0388 76.1078 11.3022C75.8834 11.5655 75.7694 11.876 75.7694 12.2314V15.4468H74.5506V11.5759C74.5506 11.0998 74.5355 10.5834 74.5064 10.0245H75.5775L75.6345 10.8721H75.6682C75.8101 10.6087 76.0217 10.3914 76.2997 10.2177C76.63 10.0153 76.9998 9.91296 77.4045 9.91296C77.9162 9.91296 78.3418 10.0763 78.6803 10.404C79.1013 10.8054 79.3118 11.4045 79.3118 12.2003V15.4479Z" fill="black"/>
<path d="M82.6727 15.4479H81.4551V7.53937H82.6727V15.4479Z" fill="black"/>
<path d="M89.8482 12.6925C89.8482 13.5263 89.6075 14.2094 89.126 14.7453C88.6213 15.2961 87.9514 15.571 87.1176 15.571C86.3116 15.571 85.6708 15.3076 85.194 14.7786C84.7172 14.2508 84.4788 13.5849 84.4788 12.7822C84.4788 11.9427 84.7242 11.2539 85.2173 10.7191C85.7104 10.1844 86.3733 9.91644 87.2071 9.91644C88.0131 9.91644 88.6585 10.1798 89.1493 10.7076C89.6145 11.2205 89.8482 11.8829 89.8482 12.6925ZM88.5829 12.7316C88.5829 12.2314 88.4736 11.8024 88.2561 11.4448C88.0014 11.0124 87.6363 10.7962 87.1641 10.7962C86.6733 10.7962 86.3012 11.0124 86.0465 11.4448C85.8279 11.8024 85.7197 12.2383 85.7197 12.7535C85.7197 13.2537 85.829 13.6827 86.0465 14.0403C86.3105 14.4727 86.678 14.6889 87.1525 14.6889C87.6177 14.6889 87.9817 14.4693 88.2445 14.0288C88.4713 13.6643 88.5829 13.2319 88.5829 12.7316Z" fill="black"/>
<path d="M95.7468 15.4479H94.6524L94.5617 14.8235H94.528C94.1535 15.3214 93.6197 15.571 92.9266 15.571C92.4091 15.571 91.9904 15.4065 91.6752 15.0799C91.3891 14.7832 91.2461 14.4141 91.2461 13.9759C91.2461 13.3135 91.5252 12.8087 92.0869 12.4591C92.6475 12.1095 93.436 11.9381 94.4512 11.9462V11.845C94.4512 11.1308 94.0721 10.7743 93.3127 10.7743C92.7719 10.7743 92.2951 10.9089 91.8834 11.1757L91.6357 10.3845C92.1451 10.0728 92.7742 9.91644 93.5162 9.91644C94.949 9.91644 95.6677 10.6639 95.6677 12.1589V14.1553C95.6677 14.697 95.6944 15.1282 95.7468 15.4479ZM94.4814 13.5849V12.7489C93.1371 12.7259 92.4649 13.0904 92.4649 13.8414C92.4649 14.1243 92.5416 14.3359 92.6986 14.4773C92.8556 14.6188 93.0557 14.6889 93.2941 14.6889C93.5616 14.6889 93.8116 14.605 94.0395 14.4382C94.2686 14.2703 94.4093 14.0576 94.4617 13.7965C94.4745 13.7379 94.4814 13.6666 94.4814 13.5849Z" fill="black"/>
<path d="M102.672 15.4479H101.591L101.534 14.5774H101.5C101.155 15.2398 100.566 15.571 99.7392 15.571C99.0787 15.571 98.5286 15.3145 98.0925 14.8016C97.6564 14.2887 97.4389 13.6229 97.4389 12.8052C97.4389 11.9278 97.675 11.2171 98.1495 10.6743C98.6088 10.1683 99.1717 9.91527 99.8416 9.91527C100.578 9.91527 101.093 10.1602 101.386 10.6513H101.409V7.53937H102.629V13.9874C102.629 14.5153 102.643 15.0017 102.672 15.4479ZM101.409 13.1617V12.2578C101.409 12.1014 101.398 11.9749 101.376 11.8783C101.307 11.5885 101.159 11.3447 100.935 11.1481C100.708 10.9514 100.435 10.8525 100.12 10.8525C99.6648 10.8525 99.3089 11.0308 99.0473 11.3884C98.7879 11.7461 98.6565 12.2026 98.6565 12.7604C98.6565 13.2963 98.7809 13.731 99.031 14.0656C99.295 14.4221 99.6508 14.6004 100.096 14.6004C100.496 14.6004 100.816 14.452 101.059 14.1542C101.294 13.8793 101.409 13.5481 101.409 13.1617Z" fill="black"/>
<path d="M113.096 12.6925C113.096 13.5263 112.855 14.2094 112.374 14.7453C111.869 15.2961 111.201 15.571 110.365 15.571C109.562 15.571 108.921 15.3076 108.442 14.7786C107.965 14.2508 107.726 13.5849 107.726 12.7822C107.726 11.9427 107.972 11.2539 108.465 10.7191C108.958 10.1844 109.621 9.91644 110.457 9.91644C111.261 9.91644 111.908 10.1798 112.397 10.7076C112.862 11.2205 113.096 11.8829 113.096 12.6925ZM111.833 12.7316C111.833 12.2314 111.724 11.8024 111.506 11.4448C111.249 11.0124 110.886 10.7962 110.412 10.7962C109.923 10.7962 109.551 11.0124 109.294 11.4448C109.075 11.8024 108.967 12.2383 108.967 12.7535C108.967 13.2537 109.077 13.6827 109.294 14.0403C109.558 14.4727 109.926 14.6889 110.4 14.6889C110.865 14.6889 111.232 14.4693 111.494 14.0288C111.719 13.6643 111.833 13.2319 111.833 12.7316Z" fill="black"/>
<path d="M119.649 15.4479H118.432V12.3429C118.432 11.3861 118.064 10.9077 117.326 10.9077C116.964 10.9077 116.672 11.0388 116.446 11.3022C116.221 11.5655 116.108 11.876 116.108 12.2314V15.4468H114.888V11.5759C114.888 11.0998 114.874 10.5834 114.845 10.0245H115.915L115.972 10.8721H116.006C116.149 10.6087 116.36 10.3914 116.637 10.2177C116.969 10.0153 117.337 9.91296 117.743 9.91296C118.254 9.91296 118.679 10.0763 119.018 10.404C119.44 10.8054 119.649 11.4045 119.649 12.2003V15.4479Z" fill="black"/>
<path d="M127.852 10.9295H126.509V13.563C126.509 14.2323 126.748 14.567 127.22 14.567C127.439 14.567 127.62 14.5486 127.763 14.5106L127.795 15.4249C127.554 15.5146 127.237 15.5594 126.848 15.5594C126.366 15.5594 125.992 15.4145 125.721 15.1247C125.449 14.8349 125.314 14.3473 125.314 13.6631V10.9295H124.513V10.0268H125.314V9.0332L126.508 8.6767V10.0256H127.85V10.9295H127.852Z" fill="black"/>
<path d="M134.304 15.4479H133.084V12.3659C133.084 11.3942 132.716 10.9077 131.98 10.9077C131.415 10.9077 131.029 11.1895 130.817 11.753C130.781 11.8714 130.76 12.0163 130.76 12.1865V15.4468H129.542V7.53937H130.76V10.8065H130.783C131.167 10.212 131.717 9.91527 132.43 9.91527C132.935 9.91527 133.352 10.0786 133.684 10.4063C134.097 10.8146 134.304 11.4218 134.304 12.2245V15.4479Z" fill="black"/>
<path d="M140.959 12.4809C140.959 12.6971 140.943 12.8788 140.914 13.0272H137.259C137.275 13.5631 137.449 13.9713 137.788 14.2542C138.097 14.5072 138.496 14.6337 138.985 14.6337C139.525 14.6337 140.018 14.5486 140.463 14.3773L140.653 15.2145C140.134 15.4376 139.522 15.5491 138.814 15.5491C137.965 15.5491 137.296 15.3019 136.812 14.8074C136.326 14.3129 136.085 13.6493 136.085 12.8167C136.085 11.9991 136.31 11.3183 136.762 10.7755C137.234 10.1959 137.873 9.90607 138.679 9.90607C139.467 9.90607 140.066 10.1959 140.471 10.7755C140.798 11.2355 140.959 11.8047 140.959 12.4809ZM139.796 12.1693C139.806 11.8116 139.725 11.5034 139.56 11.2435C139.349 10.9089 139.026 10.741 138.59 10.741C138.193 10.741 137.868 10.9043 137.62 11.232C137.418 11.4931 137.298 11.8047 137.259 12.1693H139.796Z" fill="black"/>
<path d="M62.3871 36.2296H59.7461L58.2993 31.7343H53.2707L51.8926 36.2296H49.3213L54.3034 20.9254H57.3806L62.3871 36.2296ZM57.8632 29.8483L56.5549 25.852C56.4165 25.4438 56.1571 24.4824 55.7745 22.969H55.728C55.5757 23.6199 55.3303 24.5813 54.993 25.852L53.7079 29.8483H57.8632Z" fill="black"/>
<path d="M75.1995 30.5762C75.1995 32.453 74.6866 33.9365 73.6609 35.0256C72.7422 35.995 71.6013 36.4792 70.2395 36.4792C68.7695 36.4792 67.7135 35.9571 67.0704 34.9129H67.0239V40.7261H64.5444V28.8271C64.5444 27.6472 64.513 26.4362 64.4526 25.1942H66.6331L66.7715 26.9434H66.818C67.6449 25.6255 68.8997 24.9677 70.5837 24.9677C71.9002 24.9677 72.9992 25.4817 73.8784 26.511C74.7599 27.5414 75.1995 28.8961 75.1995 30.5762ZM72.6735 30.6659C72.6735 29.5918 72.4293 28.7063 71.9386 28.0094C71.4024 27.2826 70.6825 26.9192 69.7801 26.9192C69.1684 26.9192 68.6125 27.1216 68.1159 27.5207C67.6181 27.9232 67.2925 28.4487 67.1402 29.0996C67.0634 29.4032 67.025 29.6516 67.025 29.8471V31.6871C67.025 32.4898 67.2739 33.1672 67.7717 33.7203C68.2694 34.2735 68.916 34.5495 69.7115 34.5495C70.6453 34.5495 71.3722 34.193 71.892 33.4823C72.413 32.7704 72.6735 31.832 72.6735 30.6659Z" fill="black"/>
<path d="M88.0351 30.5762C88.0351 32.453 87.5223 33.9365 86.4954 35.0256C85.5778 35.995 84.4369 36.4792 83.0751 36.4792C81.6051 36.4792 80.5491 35.9571 79.9072 34.9129H79.8607V40.7261H77.3812V28.8271C77.3812 27.6472 77.3498 26.4362 77.2894 25.1942H79.4699L79.6083 26.9434H79.6548C80.4805 25.6255 81.7354 24.9677 83.4205 24.9677C84.7358 24.9677 85.8348 25.4817 86.7163 26.511C87.5944 27.5414 88.0351 28.8961 88.0351 30.5762ZM85.5092 30.6659C85.5092 29.5918 85.2638 28.7063 84.773 28.0094C84.2369 27.2826 83.5194 26.9192 82.6157 26.9192C82.0028 26.9192 81.4481 27.1216 80.9504 27.5207C80.4526 27.9232 80.1281 28.4487 79.9758 29.0996C79.9002 29.4032 79.8607 29.6516 79.8607 29.8471V31.6871C79.8607 32.4898 80.1095 33.1672 80.605 33.7203C81.1027 34.2723 81.7493 34.5495 82.5471 34.5495C83.481 34.5495 84.2078 34.193 84.7277 33.4823C85.2487 32.7704 85.5092 31.832 85.5092 30.6659Z" fill="black"/>
<path d="M102.386 31.9378C102.386 33.2396 101.929 34.2988 101.011 35.1164C100.003 36.01 98.5995 36.4562 96.7957 36.4562C95.1304 36.4562 93.7953 36.1388 92.7847 35.5028L93.3592 33.4593C94.4477 34.1102 95.6421 34.4368 96.9434 34.4368C97.8773 34.4368 98.6041 34.2275 99.1263 33.8112C99.6462 33.3949 99.9055 32.836 99.9055 32.1391C99.9055 31.5181 99.6915 30.9948 99.2624 30.5705C98.8356 30.1461 98.1227 29.7517 97.1272 29.3871C94.4175 28.3878 93.0638 26.9238 93.0638 24.9987C93.0638 23.7406 93.5383 22.7091 94.4884 21.9064C95.4351 21.1025 96.698 20.7012 98.2773 20.7012C99.6857 20.7012 100.856 20.9438 101.789 21.428L101.17 23.4267C100.297 22.9575 99.3112 22.7229 98.2076 22.7229C97.3353 22.7229 96.6539 22.9356 96.1654 23.3588C95.7526 23.7372 95.5455 24.1983 95.5455 24.7446C95.5455 25.3495 95.7816 25.8497 96.2561 26.243C96.669 26.6064 97.4191 26.9997 98.5076 27.4241C99.8392 27.9542 100.817 28.5741 101.446 29.2848C102.073 29.9932 102.386 30.8798 102.386 31.9378Z" fill="black"/>
<path d="M110.584 27.0342H107.851V32.3921C107.851 33.7548 108.332 34.4356 109.298 34.4356C109.741 34.4356 110.108 34.3977 110.399 34.3218L110.468 36.1836C109.979 36.3642 109.336 36.455 108.539 36.455C107.56 36.455 106.795 36.1595 106.242 35.5695C105.692 34.9784 105.416 33.9871 105.416 32.5945V27.0319H103.787V25.1919H105.416V23.1714L107.851 22.4446V25.1919H110.584V27.0342Z" fill="black"/>
<path d="M122.915 30.6211C122.915 32.3173 122.424 33.71 121.445 34.799C120.418 35.9203 119.055 36.4792 117.356 36.4792C115.718 36.4792 114.415 35.9421 113.442 34.868C112.47 33.7939 111.984 32.4381 111.984 30.8039C111.984 29.0939 112.484 27.6932 113.488 26.6041C114.489 25.5139 115.84 24.9688 117.539 24.9688C119.177 24.9688 120.495 25.5059 121.489 26.5811C122.44 27.6242 122.915 28.9708 122.915 30.6211ZM120.342 30.7004C120.342 29.6827 120.122 28.8098 119.677 28.0819C119.157 27.201 118.414 26.7617 117.451 26.7617C116.454 26.7617 115.697 27.2021 115.178 28.0819C114.732 28.811 114.512 29.6976 114.512 30.7464C114.512 31.7642 114.732 32.637 115.178 33.3638C115.714 34.2447 116.463 34.684 117.429 34.684C118.376 34.684 119.119 34.2355 119.655 33.3408C120.112 32.5991 120.342 31.717 120.342 30.7004Z" fill="black"/>
<path d="M130.974 27.3505C130.729 27.3056 130.467 27.2826 130.193 27.2826C129.32 27.2826 128.646 27.6081 128.171 28.2601C127.758 28.8351 127.551 29.5619 127.551 30.4394V36.2296H125.073L125.096 28.6695C125.096 27.3976 125.065 26.2396 125.003 25.1954H127.163L127.254 27.3068H127.322C127.584 26.5811 127.997 25.9969 128.562 25.5588C129.114 25.1643 129.711 24.9677 130.354 24.9677C130.583 24.9677 130.79 24.9838 130.974 25.0125V27.3505Z" fill="black"/>
<path d="M142.063 30.1898C142.063 30.6291 142.034 30.9994 141.972 31.3019H134.534C134.563 32.3921 134.922 33.2258 135.613 33.8008C136.24 34.3149 137.051 34.5725 138.046 34.5725C139.147 34.5725 140.152 34.3988 141.056 34.0504L141.444 35.7524C140.388 36.2078 139.142 36.4343 137.703 36.4343C135.972 36.4343 134.614 35.9306 133.626 34.9244C132.639 33.9181 132.145 32.5669 132.145 30.8718C132.145 29.2077 132.605 27.822 133.524 26.7168C134.487 25.5369 135.789 24.947 137.426 24.947C139.035 24.947 140.252 25.5369 141.079 26.7168C141.734 27.6541 142.063 28.8133 142.063 30.1898ZM139.699 29.5539C139.715 28.8271 139.553 28.1992 139.217 27.669C138.788 26.9871 138.129 26.6467 137.241 26.6467C136.431 26.6467 135.771 26.979 135.268 27.646C134.855 28.1762 134.609 28.8121 134.534 29.5527H139.699V29.5539Z" fill="black"/>
</svg>
