<svg width="72" height="72" viewBox="0 0 72 72" fill="none" xmlns="http://www.w3.org/2000/svg">
<path d="M36 6.75C30.2149 6.75 24.5597 8.46548 19.7496 11.6795C14.9394 14.8935 11.1904 19.4618 8.97654 24.8065C6.76267 30.1512 6.18343 36.0324 7.31204 41.7064C8.44066 47.3803 11.2265 52.5922 15.3171 56.6829C19.4078 60.7736 24.6197 63.5593 30.2936 64.688C35.9676 65.8166 41.8488 65.2373 47.1935 63.0235C52.5382 60.8096 57.1065 57.0606 60.3205 52.2504C63.5345 47.4403 65.25 41.7851 65.25 36C65.2418 28.2449 62.1575 20.8098 56.6738 15.3262C51.1902 9.84251 43.7551 6.75819 36 6.75ZM60.646 33.75H49.4438C49.0472 25.7456 46.5553 18.1491 42.3788 12.0938C47.2703 13.407 51.6426 16.1861 54.9082 20.0575C58.1737 23.9289 60.176 28.7071 60.646 33.75ZM36 60.7191C30.7322 55.0181 27.5372 46.9378 27.0647 38.25H44.9353C44.4628 46.9322 41.2678 55.0181 36 60.7191ZM27.0647 33.75C27.5372 25.0678 30.721 16.9819 36 11.2809C41.2678 16.9819 44.4628 25.0622 44.9353 33.75H27.0647ZM29.6213 12.0938C25.4447 18.1491 22.9528 25.7456 22.5563 33.75H11.3541C11.824 28.7071 13.8263 23.9289 17.0918 20.0575C20.3574 16.1861 24.7297 13.407 29.6213 12.0938ZM11.3541 38.25H22.5563C22.9528 46.2544 25.4447 53.8509 29.6213 59.9062C24.7297 58.593 20.3574 55.8139 17.0918 51.9425C13.8263 48.0711 11.824 43.2929 11.3541 38.25ZM42.3788 59.9062C46.5553 53.8425 49.0472 46.2459 49.4438 38.25H60.646C60.176 43.2929 58.1737 48.0711 54.9082 51.9425C51.6426 55.8139 47.2703 58.593 42.3788 59.9062Z" fill="#9747FF"/>
</svg>
