<svg width="36" height="72" viewBox="0 0 36 72" fill="none" xmlns="http://www.w3.org/2000/svg">
<path d="M63 18C62.9992 16.3169 62.5264 14.6677 61.6353 13.2398C60.7443 11.8119 59.4707 10.6625 57.9592 9.92212C56.4476 9.18171 54.7588 8.87999 53.0844 9.05122C51.41 9.22244 49.8172 9.85976 48.4869 10.8908C47.1565 11.9218 46.1419 13.3052 45.5583 14.8839C44.9748 16.4626 44.8456 18.1733 45.1854 19.8218C45.5252 21.4702 46.3205 22.9903 47.4809 24.2095C48.6413 25.4286 50.1204 26.298 51.75 26.7187V29.25C51.75 30.4435 51.2759 31.588 50.432 32.432C49.5881 33.2759 48.4435 33.75 47.25 33.75H27C25.4191 33.7481 23.8661 34.1664 22.5 34.9622V26.7187C24.621 26.1711 26.4694 24.8687 27.6989 23.0557C28.9283 21.2427 29.4543 19.0436 29.1783 16.8705C28.9023 14.6974 27.8432 12.6996 26.1995 11.2515C24.5559 9.80343 22.4406 9.00452 20.25 9.00452C18.0595 9.00452 15.9441 9.80343 14.3005 11.2515C12.6569 12.6996 11.5978 14.6974 11.3218 16.8705C11.0457 19.0436 11.5717 21.2427 12.8012 23.0557C14.0306 24.8687 15.879 26.1711 18 26.7187V45.2812C15.879 45.8289 14.0306 47.1313 12.8012 48.9443C11.5717 50.7573 11.0457 52.9564 11.3218 55.1295C11.5978 57.3026 12.6569 59.3004 14.3005 60.7485C15.9441 62.1965 18.0595 62.9954 20.25 62.9954C22.4406 62.9954 24.5559 62.1965 26.1995 60.7485C27.8432 59.3004 28.9023 57.3026 29.1783 55.1295C29.4543 52.9564 28.9283 50.7573 27.6989 48.9443C26.4694 47.1313 24.621 45.8289 22.5 45.2812V42.75C22.5 41.5565 22.9741 40.4119 23.818 39.568C24.662 38.7241 25.8065 38.25 27 38.25H47.25C49.637 38.25 51.9262 37.3018 53.614 35.6139C55.3018 33.9261 56.25 31.6369 56.25 29.25V26.7187C58.1812 26.2171 59.8915 25.0891 61.113 23.5113C62.3345 21.9336 62.9981 19.9953 63 18ZM15.75 18C15.75 17.11 16.0139 16.2399 16.5084 15.4999C17.0029 14.7599 17.7057 14.1831 18.5279 13.8425C19.3502 13.5019 20.255 13.4128 21.1279 13.5864C22.0008 13.7601 22.8027 14.1887 23.432 14.818C24.0613 15.4473 24.4899 16.2492 24.6636 17.1221C24.8372 17.995 24.7481 18.8998 24.4075 19.7221C24.0669 20.5443 23.4901 21.2471 22.7501 21.7416C22.0101 22.2361 21.14 22.5 20.25 22.5C19.0565 22.5 17.912 22.0259 17.068 21.182C16.2241 20.338 15.75 19.1935 15.75 18ZM24.75 54C24.75 54.89 24.4861 55.76 23.9916 56.5001C23.4972 57.2401 22.7944 57.8168 21.9721 58.1574C21.1498 58.498 20.245 58.5872 19.3721 58.4135C18.4992 58.2399 17.6974 57.8113 17.068 57.182C16.4387 56.5526 16.0101 55.7508 15.8365 54.8779C15.6629 54.005 15.752 53.1002 16.0926 52.2779C16.4332 51.4556 17.0099 50.7528 17.75 50.2584C18.49 49.7639 19.36 49.5 20.25 49.5C21.4435 49.5 22.5881 49.9741 23.432 50.818C24.2759 51.6619 24.75 52.8065 24.75 54ZM54 22.5C53.11 22.5 52.24 22.2361 51.5 21.7416C50.7599 21.2471 50.1832 20.5443 49.8426 19.7221C49.502 18.8998 49.4129 17.995 49.5865 17.1221C49.7601 16.2492 50.1887 15.4473 50.818 14.818C51.4474 14.1887 52.2492 13.7601 53.1221 13.5864C53.995 13.4128 54.8998 13.5019 55.7221 13.8425C56.5444 14.1831 57.2472 14.7599 57.7416 15.4999C58.2361 16.2399 58.5 17.11 58.5 18C58.5 19.1935 58.0259 20.338 57.182 21.182C56.3381 22.0259 55.1935 22.5 54 22.5Z" fill="#9747FF"/>
</svg>
