<svg width="58" height="58" viewBox="0 0 58 58" fill="none" xmlns="http://www.w3.org/2000/svg">
<path d="M50.8 14.6002C50.7994 13.2537 50.4211 11.9344 49.7083 10.7921C48.9954 9.64975 47.9766 8.73021 46.7673 8.13789C45.5581 7.54556 44.2071 7.30419 42.8676 7.44117C41.5281 7.57815 40.2538 8.088 39.1895 8.91282C38.1252 9.73764 37.3136 10.8444 36.8467 12.1073C36.3798 13.3703 36.2765 14.7389 36.5483 16.0576C36.8202 17.3764 37.4565 18.5925 38.3848 19.5678C39.3131 20.5431 40.4963 21.2386 41.8 21.5752V23.6002C41.8 24.555 41.4208 25.4706 40.7456 26.1458C40.0705 26.8209 39.1548 27.2002 38.2 27.2002H22C20.7353 27.1986 19.4929 27.5333 18.4 28.1699V21.5752C20.0968 21.1371 21.5756 20.0952 22.5591 18.6448C23.5427 17.1944 23.9635 15.435 23.7427 13.6966C23.5218 11.9581 22.6746 10.3599 21.3597 9.2014C20.0448 8.04294 18.3525 7.40381 16.6 7.40381C14.8476 7.40381 13.1553 8.04294 11.8404 9.2014C10.5255 10.3599 9.67824 11.9581 9.45743 13.6966C9.23661 15.435 9.65742 17.1944 10.641 18.6448C11.6245 20.0952 13.1033 21.1371 14.8 21.5752V36.4252C13.1033 36.8633 11.6245 37.9052 10.641 39.3556C9.65742 40.806 9.23661 42.5653 9.45743 44.3038C9.67824 46.0422 10.5255 47.6405 11.8404 48.799C13.1553 49.9574 14.8476 50.5966 16.6 50.5966C18.3525 50.5966 20.0448 49.9574 21.3597 48.799C22.6746 47.6405 23.5218 46.0422 23.7427 44.3038C23.9635 42.5653 23.5427 40.806 22.5591 39.3556C21.5756 37.9052 20.0968 36.8633 18.4 36.4252V34.4002C18.4 33.4454 18.7793 32.5297 19.4545 31.8546C20.1296 31.1795 21.0453 30.8002 22 30.8002H38.2C40.1096 30.8002 41.941 30.0416 43.2912 28.6914C44.6415 27.3411 45.4 25.5097 45.4 23.6002V21.5752C46.945 21.1739 48.3133 20.2715 49.2904 19.0093C50.2676 17.7471 50.7985 16.1964 50.8 14.6002ZM13 14.6002C13 13.8882 13.2112 13.1921 13.6068 12.6001C14.0023 12.0081 14.5646 11.5467 15.2224 11.2742C15.8802 11.0017 16.604 10.9304 17.3024 11.0694C18.0007 11.2083 18.6422 11.5511 19.1456 12.0546C19.6491 12.5581 19.992 13.1995 20.1309 13.8979C20.2698 14.5962 20.1985 15.32 19.926 15.9778C19.6535 16.6357 19.1921 17.1979 18.6001 17.5935C18.0081 17.989 17.3121 18.2002 16.6 18.2002C15.6453 18.2002 14.7296 17.8209 14.0545 17.1458C13.3793 16.4706 13 15.555 13 14.6002ZM20.2 43.4002C20.2 44.1122 19.9889 44.8082 19.5933 45.4002C19.1978 45.9923 18.6355 46.4537 17.9777 46.7262C17.3199 46.9986 16.596 47.0699 15.8977 46.931C15.1994 46.7921 14.5579 46.4492 14.0545 45.9458C13.551 45.4423 13.2081 44.8008 13.0692 44.1025C12.9303 43.4042 13.0016 42.6803 13.2741 42.0225C13.5466 41.3647 14.008 40.8025 14.6 40.4069C15.192 40.0113 15.888 39.8002 16.6 39.8002C17.5548 39.8002 18.4705 40.1795 19.1456 40.8546C19.8208 41.5297 20.2 42.4454 20.2 43.4002ZM43.6 18.2002C42.888 18.2002 42.192 17.989 41.6 17.5935C41.008 17.1979 40.5466 16.6357 40.2741 15.9778C40.0016 15.32 39.9303 14.5962 40.0692 13.8979C40.2081 13.1995 40.551 12.5581 41.0545 12.0546C41.5579 11.5511 42.1994 11.2083 42.8977 11.0694C43.5961 10.9304 44.3199 11.0017 44.9777 11.2742C45.6355 11.5467 46.1978 12.0081 46.5933 12.6001C46.9889 13.1921 47.2 13.8882 47.2 14.6002C47.2 15.555 46.8208 16.4706 46.1456 17.1458C45.4705 17.8209 44.5548 18.2002 43.6 18.2002Z" fill="#9747FF"/>
</svg>
