<svg width="72" height="72" viewBox="0 0 72 72" fill="none" xmlns="http://www.w3.org/2000/svg">
<g clip-path="url(#clip0_26_45704)">
<path d="M64.7803 39.6731C63.9431 39.0289 62.9685 38.5865 61.9325 38.3802C60.8964 38.1738 59.8267 38.2092 58.8066 38.4834L47.0391 41.1891C47.3128 40.0325 47.3213 38.8291 47.0638 37.6688C46.8063 36.5085 46.2895 35.4216 45.5522 34.4895C44.8149 33.5574 43.8762 32.8042 42.8064 32.2865C41.7366 31.7688 40.5635 31.4999 39.375 31.5H25.2956C24.1132 31.497 22.942 31.7284 21.8496 32.1807C20.7571 32.6331 19.7651 33.2974 18.9309 34.1353L12.5691 40.5H4.5C3.30653 40.5 2.16193 40.9741 1.31802 41.818C0.474106 42.6619 0 43.8065 0 45L0 56.25C0 57.4435 0.474106 58.5881 1.31802 59.432C2.16193 60.2759 3.30653 60.75 4.5 60.75H33.75C33.934 60.7501 34.1172 60.7274 34.2956 60.6825L52.2956 56.1825C52.4104 56.1552 52.5224 56.1175 52.6303 56.07L63.5625 51.4181L63.6862 51.3619C64.7369 50.8369 65.6366 50.053 66.3006 49.0842C66.9646 48.1154 67.3711 46.9935 67.4816 45.8241C67.5922 44.6548 67.4033 43.4766 66.9327 42.4005C66.462 41.3244 65.7252 40.3858 64.7916 39.6731H64.7803ZM4.5 45H11.25V56.25H4.5V45ZM61.7147 47.3091L51.0272 51.8597L33.4688 56.25H15.75V43.6809L22.1147 37.3191C22.531 36.8994 23.0267 36.5666 23.5727 36.3402C24.1188 36.1138 24.7045 35.9981 25.2956 36H39.375C40.2701 36 41.1285 36.3556 41.7615 36.9885C42.3944 37.6215 42.75 38.4799 42.75 39.375C42.75 40.2701 42.3944 41.1286 41.7615 41.7615C41.1285 42.3944 40.2701 42.75 39.375 42.75H31.5C30.9033 42.75 30.331 42.9871 29.909 43.409C29.4871 43.831 29.25 44.4033 29.25 45C29.25 45.5967 29.4871 46.169 29.909 46.591C30.331 47.013 30.9033 47.25 31.5 47.25H40.5C40.6694 47.2495 40.8382 47.2307 41.0034 47.1938L59.8472 42.8597L59.9344 42.8372C60.5096 42.6775 61.1236 42.7362 61.6582 43.002C62.1927 43.2677 62.6101 43.7218 62.8301 44.2768C63.05 44.8318 63.0568 45.4486 62.8494 46.0084C62.6419 46.5681 62.2348 47.0314 61.7062 47.3091H61.7147ZM46.125 27C46.6809 27.0006 47.2359 26.9555 47.7844 26.865C48.4013 28.6975 49.53 30.315 51.0371 31.5263C52.5442 32.7376 54.3666 33.492 56.2889 33.7004C58.2111 33.9088 60.1529 33.5625 61.8845 32.7023C63.6162 31.8421 65.0653 30.5041 66.0606 28.8464C67.056 27.1887 67.5558 25.2807 67.5011 23.348C67.4464 21.4152 66.8394 19.5385 65.7519 17.9398C64.6645 16.3411 63.142 15.0872 61.3644 14.3263C59.5869 13.5654 57.6287 13.3295 55.7212 13.6463C55.1272 11.8807 54.0576 10.3132 52.6302 9.11638C51.2027 7.91952 49.4728 7.13965 47.6307 6.86261C45.7886 6.58556 43.9058 6.82208 42.1894 7.54612C40.4731 8.27017 38.9898 9.45368 37.9027 10.9664C36.8156 12.4791 36.1669 14.2624 36.028 16.1201C35.8891 17.9777 36.2654 19.8376 37.1154 21.4952C37.9655 23.1528 39.2563 24.5437 40.8459 25.5149C42.4355 26.4862 44.2622 27 46.125 27ZM63 23.625C63 24.7375 62.6701 25.8251 62.052 26.7501C61.4339 27.6751 60.5554 28.3961 59.5276 28.8218C58.4998 29.2476 57.3688 29.359 56.2776 29.1419C55.1865 28.9249 54.1842 28.3892 53.3975 27.6025C52.6109 26.8158 52.0751 25.8135 51.8581 24.7224C51.641 23.6312 51.7524 22.5002 52.1782 21.4724C52.6039 20.4446 53.3249 19.5661 54.2499 18.948C55.1749 18.3299 56.2625 18 57.375 18C58.8668 18 60.2976 18.5926 61.3525 19.6475C62.4074 20.7024 63 22.1332 63 23.625ZM46.125 11.25C47.3521 11.2506 48.5454 11.6525 49.5228 12.3943C50.5003 13.1362 51.2084 14.1774 51.5391 15.3591C50.3867 16.1699 49.4162 17.2123 48.6898 18.4197C47.9634 19.627 47.4969 20.9727 47.3203 22.3706C46.9275 22.4555 46.5269 22.4988 46.125 22.5C44.6332 22.5 43.2024 21.9074 42.1475 20.8525C41.0926 19.7976 40.5 18.3668 40.5 16.875C40.5 15.3832 41.0926 13.9524 42.1475 12.8975C43.2024 11.8426 44.6332 11.25 46.125 11.25Z" fill="#9747FF"/>
</g>
<defs>
<clipPath id="clip0_26_45704">
<rect width="72" height="72" fill="white"/>
</clipPath>
</defs>
</svg>
