<svg width="157" height="46" viewBox="0 0 157 46" fill="none" xmlns="http://www.w3.org/2000/svg">
<path d="M151.185 46H5.81481C2.61812 46 0 43.4111 0 40.25V5.75C0 2.58894 2.61812 9.53674e-07 5.81481 9.53674e-07H151.185C154.382 9.53674e-07 157 2.58894 157 5.75V40.25C157 43.4111 154.382 46 151.185 46Z" fill="white"/>
<path d="M151.185 0.921436C153.877 0.921436 156.068 3.08775 156.068 5.75V40.25C156.068 42.9122 153.877 45.0786 151.185 45.0786H5.81481C3.12256 45.0786 0.931824 42.9122 0.931824 40.25V5.75C0.931824 3.08775 3.12256 0.921436 5.81481 0.921436H151.185ZM151.185 9.53674e-07H5.81481C2.61812 9.53674e-07 0 2.58894 0 5.75V40.25C0 43.4111 2.61812 46 5.81481 46H151.185C154.382 46 157 43.4111 157 40.25V5.75C157 2.58894 154.382 9.53674e-07 151.185 9.53674e-07Z" fill="#A6A6A6"/>
<path d="M12.1355 8.66951C11.7939 9.02313 11.5962 9.57369 11.5962 10.2867V35.7189C11.5962 36.4319 11.7939 36.9825 12.1355 37.3361L12.2198 37.4138L26.6319 23.1681V22.8318L12.2198 8.58613L12.1355 8.66951Z" fill="url(#paint0_linear_38_52910)"/>
<path d="M31.4305 27.9191L26.6318 23.1681V22.8318L31.4363 18.0808L31.5439 18.1426L37.2337 21.3439C38.8575 22.2524 38.8575 23.7474 37.2337 24.6617L31.5439 27.8573L31.4305 27.9191Z" fill="url(#paint1_linear_38_52910)"/>
<path d="M31.5439 27.8573L26.6318 23L12.1355 37.3362C12.6748 37.8968 13.5543 37.9643 14.5545 37.4037L31.5439 27.8573Z" fill="url(#paint2_linear_38_52910)"/>
<path d="M31.5439 18.1427L14.5545 8.59625C13.5543 8.04138 12.6748 8.10894 12.1355 8.66957L26.6318 23L31.5439 18.1427Z" fill="url(#paint3_linear_38_52910)"/>
<path d="M55.1448 11.7803C55.1448 12.7405 54.854 13.5096 54.2813 14.0832C53.6228 14.7631 52.7651 15.1052 51.714 15.1052C50.7095 15.1052 49.8518 14.7573 49.1483 14.0717C48.4432 13.3759 48.0914 12.522 48.0914 11.5C48.0914 10.4779 48.4432 9.62403 49.1483 8.93403C49.8518 8.24259 50.7095 7.89471 51.714 7.89471C52.2141 7.89471 52.6909 7.99678 53.1459 8.18653C53.5995 8.37771 53.9687 8.63646 54.2362 8.95559L53.6286 9.56222C53.1619 9.0174 52.5267 8.74859 51.714 8.74859C50.9814 8.74859 50.3461 9.00159 49.8068 9.5119C49.2733 10.0237 49.0058 10.6863 49.0058 11.5C49.0058 12.3136 49.2733 12.982 49.8068 13.4938C50.3461 13.9983 50.9814 14.2571 51.714 14.2571C52.4918 14.2571 53.1459 13.9983 53.662 13.488C54.0022 13.1502 54.1955 12.6845 54.2464 12.0893H51.714V11.2585H55.0924C55.1332 11.4382 55.1448 11.6121 55.1448 11.7803Z" fill="black" stroke="black" stroke-width="0.16" stroke-miterlimit="10"/>
<path d="M60.5046 8.89954H57.3311V11.0845H60.192V11.9154H57.3311V14.1004H60.5046V14.9471H56.4328V8.05286H60.5046V8.89954Z" fill="black" stroke="black" stroke-width="0.16" stroke-miterlimit="10"/>
<path d="M64.2871 14.9471H63.3887V8.89954H61.4422V8.05286H66.2351V8.89954H64.2871V14.9471Z" fill="black" stroke="black" stroke-width="0.16" stroke-miterlimit="10"/>
<path d="M69.7036 14.9471V8.05286H70.6006V14.9471H69.7036Z" fill="black" stroke="black" stroke-width="0.16" stroke-miterlimit="10"/>
<path d="M74.5764 14.9471H73.6853V8.89954H71.7315V8.05286H76.5302V8.89954H74.5764V14.9471Z" fill="black" stroke="black" stroke-width="0.16" stroke-miterlimit="10"/>
<path d="M85.6042 14.0602C84.9166 14.7573 84.0648 15.1052 83.0486 15.1052C82.0267 15.1052 81.1748 14.7573 80.4872 14.0602C79.801 13.3644 79.4594 12.5105 79.4594 11.5C79.4594 10.4894 79.801 9.63553 80.4872 8.93978C81.1748 8.24259 82.0267 7.89471 83.0486 7.89471C84.0589 7.89471 84.9108 8.24259 85.5984 8.94553C86.2904 9.64703 86.632 10.4952 86.632 11.5C86.632 12.5105 86.2904 13.3644 85.6042 14.0602ZM81.1515 13.4823C81.6691 13.9983 82.2985 14.2571 83.0486 14.2571C83.7929 14.2571 84.4282 13.9983 84.9399 13.4823C85.456 12.9662 85.7176 12.3035 85.7176 11.5C85.7176 10.6964 85.456 10.0337 84.9399 9.51765C84.4282 9.00159 83.7929 8.74284 83.0486 8.74284C82.2985 8.74284 81.6691 9.00159 81.1515 9.51765C80.6355 10.0337 80.3738 10.6964 80.3738 11.5C80.3738 12.3035 80.6355 12.9662 81.1515 13.4823Z" fill="black" stroke="black" stroke-width="0.16" stroke-miterlimit="10"/>
<path d="M87.8924 14.9471V8.05286H88.9826L92.3727 13.4147H92.4119L92.3727 12.0894V8.05286H93.2696V14.9471H92.3334L88.7835 9.32073H88.7442L88.7835 10.6519V14.9471H87.8924Z" fill="black" stroke="black" stroke-width="0.16" stroke-miterlimit="10"/>
<path d="M79.2385 25.0154C76.507 25.0154 74.2755 27.071 74.2755 29.9072C74.2755 32.7204 76.507 34.7976 79.2385 34.7976C81.9758 34.7976 84.2072 32.7204 84.2072 29.9072C84.2072 27.071 81.9758 25.0154 79.2385 25.0154ZM79.2385 32.8713C77.7397 32.8713 76.4503 31.648 76.4503 29.9072C76.4503 28.1434 77.7397 26.9417 79.2385 26.9417C80.7372 26.9417 82.0325 28.1434 82.0325 29.9072C82.0325 31.648 80.7372 32.8713 79.2385 32.8713ZM68.4098 25.0154C65.6725 25.0154 63.4469 27.071 63.4469 29.9072C63.4469 32.7204 65.6725 34.7976 68.4098 34.7976C71.1457 34.7976 73.3728 32.7204 73.3728 29.9072C73.3728 27.071 71.1457 25.0154 68.4098 25.0154ZM68.4098 32.8713C66.9096 32.8713 65.6158 31.648 65.6158 29.9072C65.6158 28.1434 66.9096 26.9417 68.4098 26.9417C69.9086 26.9417 71.198 28.1434 71.198 29.9072C71.198 31.648 69.9086 32.8713 68.4098 32.8713ZM55.5242 26.5147V28.5933H60.5438C60.397 29.7548 60.0045 30.6087 59.4027 31.2038C58.67 31.9226 57.5289 32.7204 55.5242 32.7204C52.4351 32.7204 50.0161 30.2551 50.0161 27.2004C50.0161 24.1457 52.4351 21.6804 55.5242 21.6804C57.1945 21.6804 58.4098 22.3258 59.3067 23.1625L60.7881 21.6977C59.5335 20.5132 57.8647 19.6032 55.5242 19.6032C51.2881 19.6032 47.728 23.0115 47.728 27.2004C47.728 31.3893 51.2881 34.7976 55.5242 34.7976C57.8138 34.7976 59.5335 34.0558 60.8855 32.6643C62.2708 31.2944 62.7026 29.3681 62.7026 27.8128C62.7026 27.3298 62.6619 26.8856 62.5892 26.5147H55.5242ZM108.215 28.1262C107.807 27.0322 106.546 25.0154 103.979 25.0154C101.435 25.0154 99.317 26.9977 99.317 29.9072C99.317 32.6471 101.413 34.7976 104.223 34.7976C106.495 34.7976 107.807 33.4276 108.346 32.6298L106.66 31.5187C106.097 32.3323 105.331 32.8713 104.223 32.8713C103.123 32.8713 102.333 32.3725 101.828 31.3893L108.443 28.6825L108.215 28.1262ZM101.47 29.7548C101.413 27.8688 102.951 26.9028 104.053 26.9028C104.917 26.9028 105.649 27.3298 105.894 27.9407L101.47 29.7548ZM96.0927 34.5H98.2674V20.125H96.0927V34.5ZM92.5311 26.105H92.4584C91.97 25.5329 91.0382 25.0154 89.8578 25.0154C87.3807 25.0154 85.1158 27.1659 85.1158 29.923C85.1158 32.6643 87.3807 34.7976 89.8578 34.7976C91.0382 34.7976 91.97 34.2758 92.4584 33.6864H92.5311V34.3879C92.5311 36.2581 91.5208 37.2629 89.8912 37.2629C88.5625 37.2629 87.7383 36.3141 87.3981 35.5163L85.5068 36.2969C86.052 37.5935 87.4955 39.1891 89.8912 39.1891C92.441 39.1891 94.5925 37.7056 94.5925 34.0961V25.313H92.5311V26.105ZM90.0438 32.8713C88.5451 32.8713 87.2905 31.6308 87.2905 29.923C87.2905 28.1995 88.5451 26.9417 90.0438 26.9417C91.5208 26.9417 92.6852 28.1995 92.6852 29.923C92.6852 31.6308 91.5208 32.8713 90.0438 32.8713ZM118.397 20.125H113.196V34.5H115.364V29.0533H118.397C120.806 29.0533 123.168 27.3298 123.168 24.5885C123.168 21.8486 120.8 20.125 118.397 20.125ZM118.454 27.0538H115.364V22.1246H118.454C120.073 22.1246 120.998 23.4543 120.998 24.5885C120.998 25.7011 120.073 27.0538 118.454 27.0538ZM131.861 24.9881C130.294 24.9881 128.664 25.6723 127.994 27.1889L129.919 27.9867C130.333 27.1889 131.095 26.9301 131.9 26.9301C133.025 26.9301 134.167 27.5986 134.184 28.7788V28.9297C133.792 28.7055 132.951 28.3734 131.918 28.3734C129.845 28.3734 127.733 29.5018 127.733 31.6078C127.733 33.534 129.43 34.7746 131.339 34.7746C132.799 34.7746 133.604 34.1234 134.11 33.3658H134.184V34.477H136.279V28.9628C136.279 26.4141 134.354 24.9881 131.861 24.9881ZM131.599 32.8656C130.89 32.8656 129.901 32.5177 129.901 31.648C129.901 30.5354 131.134 30.1085 132.201 30.1085C133.156 30.1085 133.604 30.3169 134.184 30.5915C134.014 31.9226 132.855 32.8656 131.599 32.8656ZM143.911 25.3029L141.418 31.5345H141.344L138.766 25.3029H136.427L140.3 34.0113L138.09 38.8571H140.357L146.324 25.3029H143.911ZM124.36 34.5H126.535V20.125H124.36V34.5Z" fill="black"/>
<defs>
<linearGradient id="paint0_linear_38_52910" x1="25.3522" y1="35.9838" x2="6.0537" y2="16.4677" gradientUnits="userSpaceOnUse">
<stop stop-color="#00A0FF"/>
<stop offset="0.0066" stop-color="#00A1FF"/>
<stop offset="0.2601" stop-color="#00BEFF"/>
<stop offset="0.5122" stop-color="#00D2FF"/>
<stop offset="0.7604" stop-color="#00DFFF"/>
<stop offset="1" stop-color="#00E3FF"/>
</linearGradient>
<linearGradient id="paint1_linear_38_52910" x1="39.3481" y1="22.9983" x2="11.208" y2="22.9983" gradientUnits="userSpaceOnUse">
<stop stop-color="#FFE000"/>
<stop offset="0.4087" stop-color="#FFBD00"/>
<stop offset="0.7754" stop-color="#FFA500"/>
<stop offset="1" stop-color="#FF9C00"/>
</linearGradient>
<linearGradient id="paint2_linear_38_52910" x1="28.8729" y1="20.3595" x2="2.70248" y2="-6.10593" gradientUnits="userSpaceOnUse">
<stop stop-color="#FF3A44"/>
<stop offset="1" stop-color="#C31162"/>
</linearGradient>
<linearGradient id="paint3_linear_38_52910" x1="8.48649" y1="45.7974" x2="20.1727" y2="33.9795" gradientUnits="userSpaceOnUse">
<stop stop-color="#32A071"/>
<stop offset="0.0685" stop-color="#2DA771"/>
<stop offset="0.4762" stop-color="#15CF74"/>
<stop offset="0.8009" stop-color="#06E775"/>
<stop offset="1" stop-color="#00F076"/>
</linearGradient>
</defs>
</svg>
