<svg width="72" height="72" viewBox="0 0 72 72" fill="none" xmlns="http://www.w3.org/2000/svg">
<path d="M63.9338 8.06627C63.3679 7.50076 62.6615 7.09633 61.8874 6.89464C61.1132 6.69294 60.2993 6.70127 59.5294 6.91877H59.4872L5.50408 23.2988C4.62533 23.5515 3.84442 24.0659 3.26533 24.7735C2.68623 25.4811 2.33644 26.3484 2.26253 27.2597C2.18862 28.1711 2.3941 29.0834 2.8516 29.875C3.3091 30.6667 3.99691 31.3003 4.82346 31.6913L28.9041 43.096L40.3088 67.1766C40.6688 67.9477 41.242 68.5998 41.9606 69.0558C42.6792 69.5118 43.5133 69.7527 44.3644 69.75C44.4938 69.75 44.6231 69.7444 44.7525 69.7331C45.6607 69.6596 46.5246 69.3101 47.2284 68.7314C47.9323 68.1528 48.4423 67.3728 48.69 66.4959L65.0588 12.5128C65.0588 12.4988 65.0588 12.4847 65.0588 12.4706C65.2791 11.7027 65.291 10.89 65.0933 10.116C64.8956 9.34191 64.4954 8.63446 63.9338 8.06627ZM44.3897 65.2078L44.3756 65.2472L33.3056 41.8781L46.5919 28.5891C46.996 28.1637 47.218 27.5972 47.2105 27.0105C47.203 26.4238 46.9666 25.8633 46.5517 25.4483C46.1368 25.0334 45.5762 24.797 44.9895 24.7895C44.4028 24.782 43.8363 25.004 43.411 25.4081L30.1219 38.6944L6.75002 27.6244H6.78939L60.75 11.25L44.3897 65.2078Z" fill="#9747FF"/>
</svg>
